<svg height="24" width="24" xmlns="http://www.w3.org/2000/svg"><g transform="translate(0 -1028.4)"><path d="m3 1043.4v2.9.4.1c-.0039 0 0 0 0 .1 0 2.4 4.0294 4.5 9 4.5 4.971 0 9-2.1 9-4.5v-.2-.3-3z" fill="#95a5a6"/><path d="m21 5c0 2.2091-4.029 4-9 4-4.9706 0-9-1.7909-9-4s4.0294-4 9-4c4.971 0 9 1.7909 9 4z" fill="#bdc3c7" transform="translate(0 1038.4)"/><path d="m3.0625 1046.9c-.046.1-.0625.3-.0625.5 0 2.2 4.0294 4 9 4 4.971 0 9-1.8 9-4 0-.2-.017-.4-.062-.5-.554 1.9-4.349 3.5-8.938 3.5-4.5894 0-8.3837-1.6-8.9375-3.5z" fill="#7f8c8d"/><path d="m3 1038.4v2.9.4.1c-.0039 0 0 0 0 .1 0 2.4 4.0294 4.5 9 4.5 4.971 0 9-2.1 9-4.5v-.2-.3-3z" fill="#95a5a6"/><path d="m21 5c0 2.2091-4.029 4-9 4-4.9706 0-9-1.7909-9-4s4.0294-4 9-4c4.971 0 9 1.7909 9 4z" fill="#bdc3c7" transform="translate(0 1033.4)"/><path d="m3.0625 1041.9c-.046.1-.0625.3-.0625.5 0 2.2 4.0294 4 9 4 4.971 0 9-1.8 9-4 0-.2-.017-.4-.062-.5-.554 1.9-4.349 3.5-8.938 3.5-4.5894 0-8.3837-1.6-8.9375-3.5z" fill="#7f8c8d"/><path d="m3 1033.4v2.9.4.1c-.0039 0 0 0 0 .1 0 2.4 4.0294 4.5 9 4.5 4.971 0 9-2.1 9-4.5v-.2-.3-3z" fill="#95a5a6"/><path d="m3.0625 1036.9c-.046.1-.0625.3-.0625.5 0 2.2 4.0294 4 9 4 4.971 0 9-1.8 9-4 0-.2-.017-.4-.062-.5-.554 1.9-4.349 3.5-8.938 3.5-4.5894 0-8.3837-1.6-8.9375-3.5z" fill="#7f8c8d"/><path d="m12 1043.4v8c4.971 0 9-2.1 9-4.5v-.2-.3-3z" fill="#bdc3c7"/><g transform="translate(0 1033.4)"><path d="m12 6v8c4.971 0 9-1.791 9-4 0-2.2091-4.029-4-9-4z" fill="#ecf0f1"/><path d="m12 5v8c4.971 0 9-2.015 9-4.5v-.1875-.3125-3z" fill="#bdc3c7"/><path d="m20.938 8.5c-.554 1.973-4.349 3.5-8.938 3.5v1c4.971 0 9-1.791 9-4 0-.1694-.017-.3362-.062-.5z" fill="#95a5a6"/></g><path d="m12 6v8c4.971 0 9-1.791 9-4 0-2.2091-4.029-4-9-4z" fill="#ecf0f1" transform="translate(0 1028.4)"/><path d="m12 5v8c4.971 0 9-2.015 9-4.5v-.1875-.3125-3z" fill="#bdc3c7" transform="translate(0 1028.4)"/><path d="m20.938 8.5c-.554 1.973-4.349 3.5-8.938 3.5v1c4.971 0 9-1.791 9-4 0-.1694-.017-.3362-.062-.5z" fill="#95a5a6" transform="translate(0 1028.4)"/><path d="m20.938 1046.9c-.554 1.9-4.349 3.5-8.938 3.5v1c4.971 0 9-1.8 9-4 0-.2-.017-.4-.062-.5z" fill="#95a5a6"/><path d="m21 5c0 2.2091-4.029 4-9 4-4.9706 0-9-1.7909-9-4s4.0294-4 9-4c4.971 0 9 1.7909 9 4z" fill="#bdc3c7" transform="translate(0 1028.4)"/></g></svg>