<?xml version="1.0" encoding="UTF-8"?>
<!DOCTYPE svg PUBLIC "-//W3C//DTD SVG 1.1//EN" "http://www.w3.org/Graphics/SVG/1.1/DTD/svg11.dtd">
<!-- Creator: CorelDRAW -->
<svg xmlns="http://www.w3.org/2000/svg" xml:space="preserve" width="2048px" height="2048px" style="shape-rendering:geometricPrecision; text-rendering:geometricPrecision; image-rendering:optimizeQuality; fill-rule:evenodd; clip-rule:evenodd"
viewBox="0 0 2048 2048"
 xmlns:xlink="http://www.w3.org/1999/xlink">
 <defs>
  <style type="text/css">
   <![CDATA[
    .fil2 {fill:none}
    .fil3 {fill:none;fill-rule:nonzero}
    .fil1 {fill:#78909C}
    .fil0 {fill:#B0BEC5}
    .fil4 {fill:#F57C00}
    .fil6 {fill:#FFA726}
    .fil5 {fill:white}
   ]]>
  </style>
   <clipPath id="id0">
    <path d="M1024 0c565.541,0 1024,458.459 1024,1024 0,565.541 -458.459,1024 -1024,1024 -565.541,0 -1024,-458.459 -1024,-1024 0,-565.541 458.459,-1024 1024,-1024z"/>
   </clipPath>
 </defs>
 <g id="Layer_x0020_1">
  <metadata id="CorelCorpID_0Corel-Layer"/>
  <path class="fil0" d="M1024 0c565.541,0 1024,458.459 1024,1024 0,565.541 -458.459,1024 -1024,1024 -565.541,0 -1024,-458.459 -1024,-1024 0,-565.541 458.459,-1024 1024,-1024z"/>
  <g style="clip-path:url(#id0)">
   <g id="_308718424">
    <g>
     <polygon id="_3030812801" class="fil1" points="1011.64,604.271 2147.52,1740.15 2149.55,1742.49 2151.47,1744.93 2153.27,1747.46 2154.95,1750.07 2156.5,1752.77 2157.93,1755.54 2159.22,1758.39 2160.38,1761.32 2161.4,1764.3 2162.27,1767.36 2162.99,1770.47 2163.56,1773.63 2163.97,1776.84 2164.22,1780.1 2164.31,1783.4 2164.31,1789.54 1028.42,653.653 1028.42,647.522 1028.34,644.221 1028.09,640.961 1027.68,637.746 1027.11,634.583 1026.39,631.473 1025.52,628.423 1024.5,625.434 1023.34,622.512 1022.05,619.661 1020.62,616.884 1019.07,614.188 1017.39,611.573 1015.58,609.047 1013.67,606.611 "/>
     <polygon id="_303081616" class="fil1" points="1500.87,665.717 2636.75,1801.6 2638.66,1804.15 2640.32,1806.87 2641.72,1809.76 2642.83,1812.8 2643.65,1815.96 2644.16,1819.23 2644.33,1822.6 2644.33,1877.73 1508.45,741.843 1508.45,686.718 1508.27,683.35 1507.77,680.076 1506.95,676.914 1505.84,673.88 1504.44,670.991 1502.78,668.265 "/>
     <polygon id="_303081808" class="fil1" points="1576.86,753.922 2712.75,1889.8 2714.68,1892.35 2716.35,1895.08 2717.72,1897.97 2718.78,1901 2719.49,1904.16 2719.85,1907.42 2719.82,1910.78 1583.94,774.897 1583.96,771.539 1583.61,768.273 1582.89,765.116 1581.84,762.086 1580.47,759.198 1578.8,756.471 "/>
     <polygon id="_303081712" class="fil1" points="1583.94,774.897 2719.82,1910.78 2675.73,2567.71 1539.85,1431.82 "/>
     <polygon id="_303081952" class="fil1" points="1539.85,1431.82 2675.73,2567.71 2675.36,2571.06 2674.7,2574.33 2673.78,2577.49 2672.6,2580.52 2671.18,2583.4 2669.52,2586.13 2667.64,2588.68 2665.55,2591.03 2663.26,2593.18 2660.79,2595.09 2658.14,2596.75 2655.32,2598.15 2652.35,2599.27 2649.25,2600.09 2646.01,2600.6 2642.66,2600.77 1677.12,2600.77 1673.77,2600.6 1670.54,2600.09 1667.44,2599.27 1664.49,2598.16 1661.68,2596.75 1659.04,2595.09 1656.58,2593.18 520.699,1457.3 523.163,1459.21 525.802,1460.87 528.605,1462.27 531.561,1463.39 534.659,1464.21 537.889,1464.72 541.238,1464.89 1506.78,1464.89 1510.13,1464.72 1513.37,1464.21 1516.47,1463.39 1519.44,1462.27 1522.25,1460.87 1524.9,1459.2 1527.38,1457.29 1529.67,1455.15 1531.76,1452.8 1533.64,1450.25 1535.3,1447.52 1536.72,1444.63 1537.9,1441.6 1538.82,1438.45 1539.48,1435.18 "/>
    </g>
    <path id="_308718448" class="fil1" d="M545.337 583.111l418.676 0c35.4272,0 64.4115,28.9843 64.4115,64.4115l0 6.13111 446.955 0c18.1878,0 33.0662,14.8784 33.0662,33.065l0 55.1245 42.424 -0.0106299c18.1866,-0.00472441 34.2803,14.9445 33.0662,33.065l-44.0882 656.926c-1.21536,18.1217 -14.9043,33.0662 -33.0662,33.0662l-965.544 0c-18.1665,0 -31.6607,-14.9339 -33.065,-33.0662l-44.0882 -568.75c-1.40551,-18.1311 14.8795,-33.065 33.065,-33.065l15.9815 0 0 -214.693c0,-17.713 14.4921,-32.2051 32.2051,-32.2051z"/>
   </g>
  </g>
  <path class="fil2" d="M1024 0c565.541,0 1024,458.459 1024,1024 0,565.541 -458.459,1024 -1024,1024 -565.541,0 -1024,-458.459 -1024,-1024 0,-565.541 458.459,-1024 1024,-1024z"/>
  <path class="fil3" d="M1488.93 870.905c0.103937,0.00708662 0.408662,0.108662 0.517323,0.168898"/>
  <path class="fil4" d="M545.337 583.111l418.677 0c35.426,0 64.4103,28.9843 64.4103,64.4103l0 6.13229 446.955 0c18.1866,0 33.0662,14.8784 33.0662,33.065l0 496.002 -515.293 0 0 -70.5426 -480.022 0 0 -496.862c0,-17.713 14.4921,-32.2051 32.2051,-32.2051z"/>
  <rect class="fil5" x="605.17" y="688.924" width="811.237" height="423.254"/>
  <path class="fil6" d="M497.15 830.009l323.712 0 214.244 -88.0477 515.764 -0.12874c18.1866,-0.00354331 34.2803,14.9445 33.065,33.065l-44.087 656.926c-1.21536,18.1217 -14.9043,33.0662 -33.0662,33.0662l-965.544 0c-18.1665,0 -31.6607,-14.9339 -33.065,-33.0662l-44.0882 -568.75c-1.40433,-18.1323 14.8784,-33.065 33.065,-33.065z"/>
 </g>
</svg>
