<svg height="64" width="64" xmlns="http://www.w3.org/2000/svg" xmlns:xlink="http://www.w3.org/1999/xlink"><linearGradient id="a"><stop offset="0" stop-color="#292c2f"/><stop offset="1" stop-opacity="0"/></linearGradient><linearGradient id="b" gradientUnits="userSpaceOnUse" x1="16" x2="44" xlink:href="#a" y1="16" y2="44"/><linearGradient id="c" gradientUnits="userSpaceOnUse" x1="22" x2="22" y1="40" y2="16"><stop offset="0" stop-color="#3e3e3e"/><stop offset="1" stop-color="#5c5c5c"/></linearGradient><linearGradient id="d" gradientUnits="userSpaceOnUse" x1="386.571" x2="386.571" y1="549.798" y2="497.798"><stop offset="0" stop-color="#7f8c8d"/><stop offset="1" stop-color="#afb0b3"/></linearGradient><linearGradient id="e" gradientUnits="userSpaceOnUse" x1="12" x2="12" y1="48" y2="10"><stop offset="0" stop-color="#eef1f2"/><stop offset="1" stop-color="#f9fafb"/></linearGradient><linearGradient id="f" gradientUnits="userSpaceOnUse" x1="400.571" x2="420.571" xlink:href="#a" y1="511.798" y2="531.798"/><path d="m386.571 497.798h44v52h-44z" fill="url(#d)" transform="translate(-376.571 -491.798)"/><path d="m47 52h7v6h-7zm-37 0h7v6h-7z" fill="#292c2f" opacity=".2"/><g stroke-width="1.857"><path d="m10 52h7v6h-1zm37 0h7v6h-7z" fill="#292c2f" opacity=".2"/><path d="m16 52h32v6h-32z" fill="#292c2e"/><path d="m20 54h14v2h-14zm16 0h8v2h-8z" fill="#f6b44d"/></g><path d="m390.571 533.798 16 16h24v-38.728l-6.636-6.636z" fill="url(#f)" opacity=".2" transform="translate(-376.571 -491.798)"/><path d="m23 10a9 9 0 0 0 -9 9v8.535a6 6 0 0 1 2 4.465 6 6 0 0 1 -2 4.463v5.537l6 6h24l6-6v-5.535a6 6 0 0 1 -2-4.465 6 6 0 0 1 2-4.463v-8.537a9 9 0 0 0 -9-9z" fill="url(#e)"/><path d="m10 57h44v1h-44z" fill="#292c2f" opacity=".4"/><path d="m36.246 17.753 13.754 13.755v16.492h-20l-8-8 4-12 2-9 2-2z" fill="url(#b)" opacity=".2"/><path d="m32 16c-3.324 0-6 2.676-6 6v6h-4v12h20v-12h-4v-6c0-3.324-2.676-6-6-6m0 2c2.492 0 4 1.092 4 4v6h-8v-6c0-2.908 1.508-4 4-4" fill="url(#c)"/></svg>