<svg width="16" height="13" viewBox="0 0 16 13" fill="none" xmlns="http://www.w3.org/2000/svg">
<path d="M15.5 1.42863C14.9488 1.67278 14.3559 1.83568 13.7306 1.91276C14.3663 1.53529 14.8555 0.933256 15.085 0.222065C14.4901 0.570786 13.831 0.827014 13.1298 0.962003C12.5698 0.368303 11.7711 0 10.8862 0C9.18636 0 7.80856 1.36572 7.80856 3.04975C7.80856 3.28806 7.83647 3.52012 7.88897 3.74552C5.33168 3.6172 3.06354 2.40147 1.54616 0.55662C1.27952 1.00742 1.12953 1.53529 1.12953 2.09233C1.12953 3.15099 1.67157 4.08299 2.49817 4.63211C1.99363 4.6167 1.51866 4.47629 1.10287 4.25131C1.10287 4.26048 1.10287 4.27423 1.10287 4.28714C1.10287 5.7666 2.16403 6.99858 3.57058 7.27898C3.31352 7.34939 3.04187 7.38855 2.76189 7.38855C2.56316 7.38855 2.36943 7.36605 2.18194 7.33231C2.57358 8.54137 3.70973 9.42505 5.05587 9.4513C4.00262 10.2679 2.67607 10.757 1.23369 10.757C0.984543 10.757 0.740813 10.7429 0.5 10.7137C1.8628 11.5765 3.481 12.0823 5.21794 12.0823C10.8779 12.0823 13.9743 7.43438 13.9743 3.40222C13.9743 3.27014 13.9701 3.13849 13.9639 3.0085C14.568 2.58187 15.0888 2.04358 15.5 1.42863Z" fill="#03A9F4"/>
</svg>
